<svg xmlns="http://www.w3.org/2000/svg" width="34.627" height="31.63" viewBox="0 0 34.627 31.63">
  <path id="calander" d="M32.463,3.072H23.8V1.1a1.087,1.087,0,0,0-2.164,0v1.97H12.978V1.1a1.087,1.087,0,0,0-2.164,0v1.97H2.164A2.077,2.077,0,0,0,0,5.049V29.766a2.077,2.077,0,0,0,2.164,1.977h30.3a2.077,2.077,0,0,0,2.164-1.977V5.049a2.077,2.077,0,0,0-2.164-1.977Zm0,26.694H2.164V5.049h8.649v1a1.087,1.087,0,0,0,2.164,0v-1h8.657v1a1.087,1.087,0,0,0,2.164,0v-1h8.664ZM24.888,15.925h2.164a1.039,1.039,0,0,0,1.082-.989V12.959a1.039,1.039,0,0,0-1.082-.989H24.888a1.039,1.039,0,0,0-1.082.989v1.977A1.039,1.039,0,0,0,24.888,15.925Zm0,7.909h2.164a1.039,1.039,0,0,0,1.082-.989V20.868a1.039,1.039,0,0,0-1.082-.989H24.888a1.039,1.039,0,0,0-1.082.989v1.977A1.038,1.038,0,0,0,24.888,23.834ZM18.4,19.879H16.231a1.039,1.039,0,0,0-1.082.989v1.977a1.039,1.039,0,0,0,1.082.989H18.4a1.039,1.039,0,0,0,1.082-.989V20.868A1.039,1.039,0,0,0,18.4,19.879Zm0-7.909H16.231a1.039,1.039,0,0,0-1.082.989v1.977a1.039,1.039,0,0,0,1.082.989H18.4a1.039,1.039,0,0,0,1.082-.989V12.959A1.039,1.039,0,0,0,18.4,11.97Zm-8.657,0H7.575a1.039,1.039,0,0,0-1.082.989v1.977a1.039,1.039,0,0,0,1.082.989H9.739a1.039,1.039,0,0,0,1.082-.989V12.959A1.039,1.039,0,0,0,9.739,11.97Zm0,7.909H7.575a1.039,1.039,0,0,0-1.082.989v1.977a1.039,1.039,0,0,0,1.082.989H9.739a1.039,1.039,0,0,0,1.082-.989V20.868A1.039,1.039,0,0,0,9.739,19.879Z" transform="translate(0 -0.113)"/>
</svg>
