<svg xmlns="http://www.w3.org/2000/svg" width="37.348" height="37.348" viewBox="0 0 37.348 37.348">
  <path id="Play_Store" data-name="Play Store" d="M18.674,37.348A18.674,18.674,0,0,1,5.47,5.47,18.674,18.674,0,1,1,31.879,31.879,18.552,18.552,0,0,1,18.674,37.348Zm5.088-17.84L11.861,30.89a.25.25,0,0,0-.062.282.249.249,0,0,0,.358.136l.009-.005,15.182-8.365ZM9.983,6.2a.257.257,0,0,0-.1.02.255.255,0,0,0-.157.236V29.713a.256.256,0,0,0,.256.256.259.259,0,0,0,.18-.074L22.271,18.086,10.163,6.276A.254.254,0,0,0,9.983,6.2Zm19.254,8.069-3.986,3.814L29.237,21.9l4.24-2.333a1.7,1.7,0,0,0,0-2.959ZM12.034,4.83A.261.261,0,0,0,11.8,5a.251.251,0,0,0,.062.282l11.9,11.38,3.587-3.428L12.165,4.868l-.009-.005A.256.256,0,0,0,12.034,4.83Z" fill="#303030"/>
</svg>
