<svg xmlns="http://www.w3.org/2000/svg" width="34.554" height="29.025" viewBox="0 0 34.554 29.025">
  <g id="projects" transform="translate(0 96)">
    <path id="Path_21" data-name="Path 21" d="M1.762-95.516C.1-94.618.035-94.03,0-84.321c0,9.882.1,10.608,1.9,11.4.657.311,4.6.415,13.994.415H29.025V-93.236H17.8c-9.433,0-11.23-.069-11.23-.484C6.565-94.48,4.527-96,3.525-96A5.142,5.142,0,0,0,1.762-95.516Zm3.075,1.589c.657.657.691,1.14.691,7.913v7.222l-1.037-.38a2.7,2.7,0,0,0-2.073,0l-1.037.38v-7.222c0-6.773.035-7.256.691-7.913a2.39,2.39,0,0,1,1.382-.691A2.39,2.39,0,0,1,4.838-93.927ZM27.643-82.869v8.984H15.2c-11.99,0-12.474-.035-13.131-.691a2.39,2.39,0,0,1-.691-1.382,2.494,2.494,0,0,1,2.073-2.073c.726,0,2.073,1.14,2.073,1.728,0,.173.311.346.691.346.657,0,.691-.242.691-7.947v-7.947H27.643Z" transform="translate(0 0)"/>
    <path id="Path_22" data-name="Path 22" d="M39.727-73.171c.518.76.484.864-1.209,2.488L36.79-68.99,35.1-70.89,33.4-72.756,30.95-70.337c-1.97,2-2.35,2.522-1.935,2.833.38.311.864.035,2.488-1.382l2-1.8,1.624,1.8,1.659,1.831,2.246-2.073a15.141,15.141,0,0,1,2.488-2.108,2.381,2.381,0,0,1,.9.76c.657.726.657.726.657-1.382V-74h-3.87Z" transform="translate(-18.891 -14.398)"/>
    <path id="Path_23" data-name="Path 23" d="M28-45.309c0,.657.242.691,7.256.691s7.256-.035,7.256-.691S42.271-46,35.256-46,28-45.965,28-45.309Z" transform="translate(-18.325 -32.723)"/>
    <path id="Path_24" data-name="Path 24" d="M37.172-79.62a.722.722,0,0,0,.173.76c.242.242.38,3.214.38,9.3v8.915h-12.3c-8.224,0-12.509-.138-12.992-.38-.518-.276-.795-.276-1.106.035-.276.311-.173.553.449,1.071.76.622,1.486.657,14.063.657H39.107V-80h-.829A1.5,1.5,0,0,0,37.172-79.62Z" transform="translate(-7.318 -10.471)"/>
    <path id="Path_25" data-name="Path 25" d="M45.172-71.62a.722.722,0,0,0,.173.76c.242.242.38,3.214.38,9.3v8.915h-12.3c-8.224,0-12.509-.138-12.992-.38-.518-.276-.795-.276-1.106.035-.276.311-.173.553.449,1.071.76.622,1.486.657,14.063.657H47.107V-72h-.829A1.5,1.5,0,0,0,45.172-71.62Z" transform="translate(-12.553 -15.707)"/>
  </g>
</svg>
