<svg xmlns="http://www.w3.org/2000/svg" xmlns:xlink="http://www.w3.org/1999/xlink" width="77.698" height="65.145" viewBox="0 0 77.698 65.145">
  <defs>
    <filter id="Path_1" x="6.631" y="9.167" width="50.117" height="51.054" filterUnits="userSpaceOnUse">
      <feOffset dy="3" input="SourceAlpha"/>
      <feGaussianBlur result="blur"/>
      <feFlood flood-color="#989898" flood-opacity="0.671"/>
      <feComposite operator="in" in2="blur"/>
      <feComposite in="SourceGraphic"/>
    </filter>
    <filter id="Path_1-2" x="6.631" y="9.167" width="50.117" height="51.054" filterUnits="userSpaceOnUse">
      <feOffset dy="3" input="SourceAlpha"/>
      <feGaussianBlur stdDeviation="3" result="blur-2"/>
      <feFlood flood-opacity="0.161" result="color"/>
      <feComposite operator="out" in="SourceGraphic" in2="blur-2"/>
      <feComposite operator="in" in="color"/>
      <feComposite operator="in" in2="SourceGraphic"/>
    </filter>
    <filter id="Rectangle_5" x="0" y="18.7" width="46.445" height="46.445" filterUnits="userSpaceOnUse">
      <feOffset dy="3" input="SourceAlpha"/>
      <feGaussianBlur stdDeviation="3" result="blur-3"/>
      <feFlood flood-opacity="0.161"/>
      <feComposite operator="in" in2="blur-3"/>
      <feComposite in="SourceGraphic"/>
    </filter>
    <filter id="Rectangle_6" x="12.745" y="0" width="64.953" height="64.953" filterUnits="userSpaceOnUse">
      <feOffset dy="3" input="SourceAlpha"/>
      <feGaussianBlur stdDeviation="3" result="blur-4"/>
      <feFlood flood-opacity="0.161"/>
      <feComposite operator="in" in2="blur-4"/>
      <feComposite in="SourceGraphic"/>
    </filter>
  </defs>
  <g id="Logo" transform="translate(6.631 6)">
    <g data-type="innerShadowGroup">
      <g transform="matrix(1, 0, 0, 1, -6.63, -6)" filter="url(#Path_1)">
        <path id="Path_1-3" data-name="Path 1" d="M25.059,0C38.9,0,50.117,10.757,50.117,24.027S38.9,48.054,25.059,48.054,0,37.3,0,24.027,11.219,0,25.059,0Z" transform="translate(6.63 9.17)" fill="#fff"/>
      </g>
      <g transform="matrix(1, 0, 0, 1, -6.63, -6)" filter="url(#Path_1-2)">
        <path id="Path_1-4" data-name="Path 1" d="M25.059,0C38.9,0,50.117,10.757,50.117,24.027S38.9,48.054,25.059,48.054,0,37.3,0,24.027,11.219,0,25.059,0Z" transform="translate(6.63 9.17)" fill="#fff"/>
      </g>
    </g>
    <g transform="matrix(1, 0, 0, 1, -6.63, -6)" filter="url(#Rectangle_5)">
      <rect id="Rectangle_5-2" data-name="Rectangle 5" width="11.174" height="29.053" rx="4" transform="translate(9 32.6) rotate(-45)" fill="rgba(212,117,71,0.93)"/>
    </g>
    <g transform="matrix(1, 0, 0, 1, -6.63, -6)" filter="url(#Rectangle_6)">
      <rect id="Rectangle_6-2" data-name="Rectangle 6" width="11.174" height="55.228" rx="4" transform="translate(29.65 52.95) rotate(-135)" fill="#d4414a"/>
    </g>
  </g>
</svg>
