<svg xmlns="http://www.w3.org/2000/svg" width="20" height="20" viewBox="0 0 20 20">
  <path id="twitter" d="M74,64A10,10,0,1,0,84,74,10,10,0,0,0,74,64Zm4.806,7.538c.007.1.007.214.007.321A7.061,7.061,0,0,1,67.949,77.8a5.314,5.314,0,0,0,.6.031,4.974,4.974,0,0,0,3.078-1.058,2.48,2.48,0,0,1-2.317-1.719,2.711,2.711,0,0,0,1.118-.045,2.478,2.478,0,0,1-1.984-2.433v-.031a2.481,2.481,0,0,0,1.118.315,2.481,2.481,0,0,1-1.1-2.062,2.43,2.43,0,0,1,.337-1.25A7.038,7.038,0,0,0,73.9,72.138a2.487,2.487,0,0,1,4.232-2.268,4.9,4.9,0,0,0,1.574-.6,2.468,2.468,0,0,1-1.089,1.364,4.9,4.9,0,0,0,1.429-.386A5.2,5.2,0,0,1,78.806,71.538Z" transform="translate(-64 -64)" fill="#303030"/>
</svg>
