<svg xmlns="http://www.w3.org/2000/svg" width="37.333" height="37.333" viewBox="0 0 37.333 37.333">
  <g id="App_Store" data-name="App Store" transform="translate(-9.333 -5.333)">
    <path id="Path_9" data-name="Path 9" d="M20.667,2A18.667,18.667,0,1,1,2,20.667,18.666,18.666,0,0,1,20.667,2Zm-5.93,24.907a2.583,2.583,0,0,0-2.761-.95l-.28.077-1.1,1.9a1.536,1.536,0,0,0,2.55,1.71l.116-.174,1.475-2.559Zm8.189-12.475a4.241,4.241,0,0,0-.541,5.2l5.675,9.83a1.538,1.538,0,0,0,2.755-1.348l-.091-.187-1.5-2.6h2.221a1.536,1.536,0,0,0,.19-3.059l-.192-.011H27.45l-4.1-7.088-.429-.739Zm.519-5.682a1.54,1.54,0,0,0-1.984.392l-.116.172L20.659,10.5l-.67-1.182a1.538,1.538,0,0,0-2.755,1.348l.091.187,1.564,2.72-5.012,8.686H9.963a1.536,1.536,0,0,0-.192,3.059l.192.011H23.926a2.129,2.129,0,0,0-1.512-3.058l-.226-.013H17.422l6.586-11.405a1.536,1.536,0,0,0-.564-2.1Z" transform="translate(7.333 3.333)" fill="#303030"/>
  </g>
</svg>
