<svg xmlns="http://www.w3.org/2000/svg" width="20" height="20" viewBox="0 0 20 20">
  <path id="instagram-with-circle-svgrepo-com" d="M14.06,6.928a1.725,1.725,0,0,0-.99-.989A2.881,2.881,0,0,0,12.1,5.76c-.549-.025-.714-.031-2.1-.031s-1.555.006-2.1.031a2.881,2.881,0,0,0-.968.179,1.725,1.725,0,0,0-.989.99A2.881,2.881,0,0,0,5.76,7.9c-.025.549-.031.714-.031,2.1s.006,1.555.031,2.1a2.881,2.881,0,0,0,.179.968,1.725,1.725,0,0,0,.99.989,2.881,2.881,0,0,0,.967.179c.549.025.714.03,2.1.03s1.555-.005,2.1-.031a2.881,2.881,0,0,0,.968-.178,1.725,1.725,0,0,0,.989-.99,2.881,2.881,0,0,0,.179-.967c.025-.549.03-.714.03-2.1s-.005-1.555-.031-2.1a2.881,2.881,0,0,0-.178-.968ZM10,12.675A2.675,2.675,0,1,1,12.675,10,2.675,2.675,0,0,1,10,12.675Zm2.78-4.83a.625.625,0,1,1,.625-.625.625.625,0,0,1-.625.625ZM11.736,10A1.736,1.736,0,1,1,10,8.264,1.736,1.736,0,0,1,11.736,10ZM10,0A10,10,0,1,0,20,10,10,10,0,0,0,10,0Zm5.177,12.147a3.823,3.823,0,0,1-.243,1.265,2.662,2.662,0,0,1-1.523,1.523,3.823,3.823,0,0,1-1.264.243c-.556.025-.733.031-2.148.031s-1.592-.006-2.148-.031a3.823,3.823,0,0,1-1.264-.243,2.662,2.662,0,0,1-1.523-1.523,3.823,3.823,0,0,1-.243-1.264c-.025-.556-.031-.733-.031-2.148s.006-1.592.031-2.148a3.823,3.823,0,0,1,.242-1.264A2.662,2.662,0,0,1,6.589,5.065a3.823,3.823,0,0,1,1.264-.242c.556-.025.733-.031,2.148-.031s1.592.006,2.148.031a3.823,3.823,0,0,1,1.264.242,2.662,2.662,0,0,1,1.523,1.524,3.823,3.823,0,0,1,.243,1.264c.025.556.031.733.031,2.148s-.006,1.592-.031,2.148Z" fill="#303030"/>
</svg>
