<?xml version="1.0" standalone="no"?>
<!DOCTYPE svg PUBLIC "-//W3C//DTD SVG 20010904//EN"
 "http://www.w3.org/TR/2001/REC-SVG-20010904/DTD/svg10.dtd">
<svg version="1.0" xmlns="http://www.w3.org/2000/svg"
 width="100.000000pt" height="100.000000pt" viewBox="0 0 100.000000 100.000000"
 preserveAspectRatio="xMidYMid meet">

<g transform="translate(0.000000,100.000000) scale(0.100000,-0.100000)"
fill="#000000" stroke="none">
<path d="M51 946 c-48 -26 -50 -43 -51 -324 0 -286 3 -307 55 -330 19 -9 133
-12 405 -12 l380 0 0 300 0 300 -325 0 c-273 0 -325 2 -325 14 0 22 -59 66
-88 66 -15 -1 -38 -7 -51 -14z m89 -46 c19 -19 20 -33 20 -229 l0 -209 -30 11
c-22 8 -38 8 -60 0 l-30 -11 0 209 c0 196 1 210 20 229 11 11 29 20 40 20 11
0 29 -9 40 -20z m660 -320 l0 -260 -360 0 c-347 0 -361 1 -380 20 -11 11 -20
29 -20 40 0 26 34 60 60 60 21 0 60 -33 60 -50 0 -5 9 -10 20 -10 19 0 20 7
20 230 l0 230 300 0 300 0 0 -260z"/>
<path d="M603 716 c15 -22 14 -25 -35 -72 l-50 -49 -49 55 -49 54 -71 -70
c-57 -58 -68 -73 -56 -82 11 -9 25 -1 72 40 l58 52 47 -52 48 -53 65 60 c35
34 68 61 72 61 4 0 16 -10 26 -22 19 -21 19 -21 19 40 l0 62 -56 0 -56 0 15
-24z"/>
<path d="M280 440 c0 -19 7 -20 210 -20 203 0 210 1 210 20 0 19 -7 20 -210
20 -203 0 -210 -1 -210 -20z"/>
<path d="M864 789 c-3 -6 -1 -16 5 -22 7 -7 11 -93 11 -269 l0 -258 -356 0
c-238 0 -362 4 -376 11 -15 8 -23 8 -32 -1 -8 -9 -5 -16 13 -31 22 -18 43 -19
407 -19 l384 0 0 300 0 300 -24 0 c-14 0 -28 -5 -32 -11z"/>
<path d="M944 709 c-3 -6 -1 -16 5 -22 7 -7 11 -93 11 -269 l0 -258 -356 0
c-238 0 -362 4 -376 11 -15 8 -23 8 -32 -1 -8 -9 -5 -16 13 -31 22 -18 43 -19
407 -19 l384 0 0 300 0 300 -24 0 c-14 0 -28 -5 -32 -11z"/>
</g>
</svg>
